<?xml version="1.0"?>
<svg xmlns="http://www.w3.org/2000/svg" xmlns:xlink="http://www.w3.org/1999/xlink" xmlns:svgjs="http://svgjs.com/svgjs" version="1.1" width="512" height="512" x="0" y="0" viewBox="0 0 512 512" style="enable-background:new 0 0 512 512" xml:space="preserve" class=""><g><g xmlns="http://www.w3.org/2000/svg"><path d="m462.571 112.143c-27.255 0-49.429 22.174-49.429 49.429v30c0 10.713-8.716 19.429-19.429 19.429s-19.429-8.716-19.429-19.429v-142.143c.001-27.255-22.172-49.429-49.427-49.429s-49.429 22.174-49.429 49.429v142.143c0 10.713-8.716 19.429-19.429 19.429l-45 45 45 45c10.713 0 19.429 8.716 19.429 19.429v97.143c0 27.255 22.174 49.429 49.429 49.429s49.428-22.174 49.428-49.429v-97.143c0-10.713 8.716-19.429 19.429-19.429s19.429 8.716 19.429 19.429v30c0 27.255 22.174 49.429 49.429 49.429s49.428-22.175 49.428-49.43v-188.858c0-27.255-22.174-49.428-49.429-49.428z" fill="#c62af1" data-original="#0ca8ed" style="" class=""/><path d="m236.571 191.571v-97.142c0-27.255-22.173-49.429-49.428-49.429s-49.429 22.174-49.429 49.429v97.143c0 10.713-8.716 19.429-19.429 19.429s-19.428-8.716-19.428-19.429v-30c0-27.255-22.173-49.429-49.428-49.429s-49.429 22.173-49.429 49.428v188.857c0 27.255 22.174 49.429 49.429 49.429s49.428-22.174 49.428-49.429v-30c0-10.713 8.715-19.429 19.428-19.429s19.429 8.716 19.429 19.429v142.143c0 27.255 22.173 49.429 49.428 49.429s49.429-22.174 49.429-49.429v-142.142c0-10.713 8.716-19.429 19.429-19.429v-90c-10.713 0-19.429-8.716-19.429-19.429z" fill="#ed68eb" data-original="#45c5ff" style="" class=""/></g></g></svg>
